<?xml version="1.0" encoding="UTF-8"?><svg id="Layer_1" xmlns="http://www.w3.org/2000/svg" viewBox="0 0 1920 401.61"><path d="M868.06,149.09c0-3.83,.73-7.44,2.21-10.82,1.47-3.38,3.45-6.33,5.95-8.82s5.44-4.48,8.82-5.95c3.38-1.47,6.99-2.21,10.82-2.21s7.34,.74,10.7,2.21c3.36,1.47,6.28,3.45,8.78,5.95s4.48,5.44,5.95,8.82c1.47,3.39,2.21,6.99,2.21,10.82s-.74,7.34-2.21,10.7c-1.47,3.36-3.45,6.28-5.95,8.78s-5.42,4.48-8.78,5.95c-3.36,1.47-6.92,2.21-10.7,2.21s-7.44-.73-10.82-2.21c-3.39-1.47-6.33-3.45-8.82-5.95s-4.48-5.42-5.95-8.78c-1.47-3.36-2.21-6.92-2.21-10.7Z"/></svg>