<?xml version="1.0" encoding="UTF-8"?><svg id="Layer_1" xmlns="http://www.w3.org/2000/svg" viewBox="0 0 1920 401.61"><g><path d="M226.88,179.06c.61-6.05,2.25-11.1,4.91-15.15,2.66-4.05,5.96-7.28,9.91-9.7,3.94-2.41,8.32-4.12,13.15-5.12s9.71-1.5,14.65-1.5c4.05,0,8.02,.17,11.9,.5,3.88,.33,7.46,.72,10.74,1.17,3.27,.44,6.1,.89,8.49,1.33,2.39,.44,4.13,.78,5.24,1,.67,.17,1,.47,1,.92,0,.11-.06,.44-.17,1l-1.25,5.99c-.11,.39-.26,.62-.46,.71-.19,.08-.37,.12-.54,.12-2.44,0-4.55,.42-6.33,1.25-1.78,.83-3.25,2-4.41,3.5s-2.05,3.27-2.66,5.33c-.61,2.05-1.03,4.27-1.25,6.66l-4.99,60.51c-.44,4.88-1.69,9.49-3.75,13.82-2.05,4.33-4.91,8.1-8.57,11.32-3.66,3.22-8.16,5.77-13.48,7.66-5.33,1.89-11.43,2.83-18.31,2.83-4.61,0-9.05-.22-13.32-.67-4.27-.44-8.16-.97-11.65-1.58-3.5-.61-6.51-1.21-9.03-1.79-2.53-.58-4.34-1.01-5.45-1.29-.67-.17-1-.47-1-.92,0-.05,.05-.36,.17-.92l1.42-6.33c.11-.39,.26-.62,.46-.71,.19-.08,.37-.12,.54-.12,2.44,0,4.7-.36,6.78-1.08,2.08-.72,3.9-1.91,5.45-3.58,1.55-1.66,2.84-3.83,3.87-6.49,1.03-2.66,1.73-5.94,2.12-9.82l5.83-58.85Z"/><path d="M384.62,256.14c1.5,0,2.86-.21,4.08-.62,1.22-.42,2.32-.87,3.29-1.37,.97-.5,1.78-.96,2.41-1.37,.64-.42,1.12-.62,1.46-.62,.5,0,.85,.08,1.04,.25,.19,.17,.43,.47,.71,.92l2.91,4.49c.28,.44,.42,.83,.42,1.17,0,.39-.11,.69-.33,.92s-.44,.42-.67,.58c-1.83,1.28-4.08,2.65-6.74,4.12-2.66,1.47-5.76,2.82-9.28,4.04-3.52,1.22-7.51,2.23-11.94,3.04-4.44,.8-9.32,1.21-14.65,1.21-4.16,0-8.32-.33-12.49-1s-8.14-1.72-11.94-3.16c-3.8-1.44-7.34-3.33-10.61-5.66-3.27-2.33-6.12-5.19-8.53-8.57-2.41-3.38-4.32-7.31-5.7-11.78-1.39-4.47-2.08-9.59-2.08-15.36s.69-10.72,2.08-15.19c1.39-4.47,3.29-8.39,5.7-11.78,2.41-3.38,5.26-6.26,8.53-8.62,3.27-2.36,6.81-4.27,10.61-5.74,3.8-1.47,7.78-2.54,11.94-3.2s8.32-1,12.49-1c6.94,0,13.39,.78,19.35,2.33,5.96,1.55,11.14,4.11,15.52,7.66,4.38,3.55,7.82,8.21,10.32,13.98,2.5,5.77,3.75,12.85,3.75,21.23v4.66c0,1-.25,1.78-.75,2.33-.5,.56-1.33,.83-2.5,.83h-34.46c.44,4.11,1.23,7.53,2.37,10.28,1.14,2.75,2.44,4.94,3.91,6.58,1.47,1.64,3.07,2.79,4.79,3.45,1.72,.67,3.38,1,4.99,1Zm9.82-31.55c0-4.44-.35-8.12-1.04-11.03-.69-2.91-1.62-5.24-2.79-6.99s-2.54-2.98-4.12-3.7c-1.58-.72-3.23-1.08-4.95-1.08-1.28,0-2.66,.25-4.16,.75s-2.9,1.55-4.2,3.16c-1.3,1.61-2.41,3.91-3.33,6.91s-1.46,6.99-1.62,11.99h26.22Z"/><path d="M475.6,227.83c0,5.61,.6,10.27,1.79,13.98,1.19,3.72,2.71,6.67,4.54,8.86,1.83,2.19,3.8,3.73,5.91,4.62,2.11,.89,4.08,1.33,5.91,1.33,1.39,0,2.66-.18,3.83-.54,1.17-.36,2.19-.78,3.08-1.25,.89-.47,1.64-.89,2.25-1.25,.61-.36,1.08-.54,1.42-.54,.5,0,.85,.08,1.04,.25,.19,.17,.43,.47,.71,.92l2.91,4.49c.28,.44,.42,.83,.42,1.17,0,.39-.11,.69-.33,.92s-.44,.42-.67,.58c-1.83,1.28-4.08,2.62-6.74,4.04-2.66,1.42-5.76,2.71-9.28,3.87-3.52,1.17-7.45,2.14-11.78,2.91-4.33,.78-9.05,1.17-14.15,1.17-4.16,0-8.32-.33-12.49-1s-8.14-1.75-11.94-3.25c-3.8-1.5-7.34-3.43-10.61-5.78-3.27-2.36-6.12-5.22-8.53-8.57-2.41-3.36-4.32-7.27-5.7-11.74-1.39-4.47-2.08-9.53-2.08-15.19s.69-10.72,2.08-15.19c1.39-4.47,3.29-8.38,5.7-11.74,2.41-3.36,5.26-6.21,8.53-8.57,3.27-2.36,6.81-4.29,10.61-5.78,3.8-1.5,7.78-2.58,11.94-3.25s8.32-1,12.49-1c4.55,0,8.93,.35,13.15,1.04,4.22,.69,8.12,1.61,11.69,2.75,3.58,1.14,6.8,2.39,9.66,3.75,2.86,1.36,5.17,2.71,6.95,4.04,.22,.17,.44,.36,.67,.58,.22,.22,.33,.53,.33,.92s-.14,.78-.42,1.17l-2.91,4.49c-.28,.44-.51,.75-.71,.92-.19,.17-.54,.25-1.04,.25-.33,0-.78-.17-1.33-.5-.56-.33-1.25-.71-2.08-1.12s-1.8-.8-2.91-1.17c-1.11-.36-2.36-.54-3.75-.54-1.83,0-3.8,.46-5.91,1.37-2.11,.92-4.08,2.48-5.91,4.7-1.83,2.22-3.34,5.19-4.54,8.91-1.19,3.72-1.79,8.38-1.79,13.98Z"/><path d="M518.71,196.29c0-1.89,.17-3.56,.5-5.04,.33-1.47,.97-2.68,1.91-3.62s2.25-1.66,3.91-2.16,3.83-.75,6.49-.75h36.46c2.55,0,4.61,.25,6.16,.75,1.55,.5,2.77,1.25,3.66,2.25,.89,1,1.48,2.25,1.79,3.75,.3,1.5,.46,3.25,.46,5.24v6.16l18.48-17.98c1.22-1.17,2.36-1.75,3.41-1.75,.61,0,1.15,.12,1.62,.37,.47,.25,.87,.54,1.21,.87l3.75,3.91c.83,.83,1.25,1.75,1.25,2.75,0,.61-.18,1.24-.54,1.87-.36,.64-.93,1.26-1.71,1.87l-27.47,21.31v42.12c0,1.94-.14,3.65-.42,5.12-.28,1.47-.89,2.69-1.83,3.66-.94,.97-2.3,1.71-4.08,2.21-1.78,.5-4.19,.75-7.24,.75h-34.96c-2.66,0-4.83-.25-6.49-.75s-2.97-1.22-3.91-2.16c-.94-.94-1.58-2.14-1.91-3.58-.33-1.44-.5-3.13-.5-5.08v-62.09Z"/><path d="M686.6,256.14c1.5,0,2.86-.21,4.08-.62,1.22-.42,2.32-.87,3.29-1.37,.97-.5,1.78-.96,2.41-1.37,.64-.42,1.12-.62,1.46-.62,.5,0,.85,.08,1.04,.25,.19,.17,.43,.47,.71,.92l2.91,4.49c.28,.44,.42,.83,.42,1.17,0,.39-.11,.69-.33,.92s-.44,.42-.67,.58c-1.83,1.28-4.08,2.65-6.74,4.12-2.66,1.47-5.76,2.82-9.28,4.04-3.52,1.22-7.51,2.23-11.94,3.04-4.44,.8-9.32,1.21-14.65,1.21-4.16,0-8.32-.33-12.49-1s-8.14-1.72-11.94-3.16c-3.8-1.44-7.34-3.33-10.61-5.66-3.27-2.33-6.12-5.19-8.53-8.57-2.41-3.38-4.32-7.31-5.7-11.78-1.39-4.47-2.08-9.59-2.08-15.36s.69-10.72,2.08-15.19c1.39-4.47,3.29-8.39,5.7-11.78,2.41-3.38,5.26-6.26,8.53-8.62,3.27-2.36,6.81-4.27,10.61-5.74,3.8-1.47,7.78-2.54,11.94-3.2s8.32-1,12.49-1c6.94,0,13.39,.78,19.35,2.33,5.96,1.55,11.14,4.11,15.52,7.66,4.38,3.55,7.82,8.21,10.32,13.98,2.5,5.77,3.75,12.85,3.75,21.23v4.66c0,1-.25,1.78-.75,2.33-.5,.56-1.33,.83-2.5,.83h-34.46c.44,4.11,1.23,7.53,2.37,10.28,1.14,2.75,2.44,4.94,3.91,6.58,1.47,1.64,3.07,2.79,4.79,3.45,1.72,.67,3.38,1,4.99,1Zm9.82-31.55c0-4.44-.35-8.12-1.04-11.03-.69-2.91-1.62-5.24-2.79-6.99s-2.54-2.98-4.12-3.7c-1.58-.72-3.23-1.08-4.95-1.08-1.28,0-2.66,.25-4.16,.75s-2.9,1.55-4.2,3.16c-1.3,1.61-2.41,3.91-3.33,6.91s-1.46,6.99-1.62,11.99h26.22Z"/><path d="M714.4,212.02c-1.17,0-1.75-.61-1.75-1.83v-6.66c0-1.17,.58-1.75,1.75-1.75h8.66v-18.89c0-.83,.12-1.66,.37-2.5s.93-1.47,2.04-1.91l45.95-16.98c2.11-.78,3.86-1.36,5.24-1.75,1.39-.39,2.61-.58,3.66-.58,.39,0,.82,.07,1.29,.21,.47,.14,.92,.37,1.33,.71s.76,.79,1.04,1.37c.28,.58,.42,1.29,.42,2.12v38.21h14.98c1.17,0,1.75,.58,1.75,1.75v6.66c0,1.22-.58,1.83-1.75,1.83h-14.98v33.54c0,3.94,.65,6.71,1.96,8.32,1.3,1.61,3.32,2.41,6.03,2.41,.61,0,1.25-.07,1.91-.21,.67-.14,1.29-.28,1.87-.42,.58-.14,1.12-.28,1.62-.42,.5-.14,.92-.21,1.25-.21,.61,0,.92,.36,.92,1.08v6.41c0,1.11-.22,1.86-.67,2.25-.44,.39-.83,.64-1.17,.75-2.11,.89-4.59,1.78-7.45,2.66-2.86,.89-5.94,1.68-9.24,2.37-3.3,.69-6.78,1.25-10.45,1.66-3.66,.42-7.32,.62-10.99,.62-5.27,0-10.17-.26-14.69-.79-4.52-.53-8.44-1.73-11.74-3.62-3.3-1.89-5.88-4.69-7.74-8.41-1.86-3.72-2.79-8.77-2.79-15.15v-32.88h-8.66Z"/><path d="M864.98,196.29c0-1.89,.17-3.56,.5-5.04,.33-1.47,.97-2.68,1.91-3.62s2.25-1.66,3.91-2.16,3.83-.75,6.49-.75h36.46c2.55,0,4.62,.24,6.2,.71,1.58,.47,2.82,1.18,3.7,2.12,.89,.94,1.47,2.14,1.75,3.58,.28,1.44,.42,3.16,.42,5.16v62.26c0,1.89-.14,3.54-.42,4.95-.28,1.42-.86,2.61-1.75,3.58-.89,.97-2.12,1.69-3.7,2.16-1.58,.47-3.65,.71-6.2,.71h-36.46c-2.66,0-4.83-.25-6.49-.75s-2.97-1.22-3.91-2.16c-.94-.94-1.58-2.14-1.91-3.58-.33-1.44-.5-3.13-.5-5.08v-62.09Zm3.08-47.2c0-3.83,.73-7.44,2.21-10.82,1.47-3.38,3.45-6.33,5.95-8.82s5.44-4.48,8.82-5.95c3.38-1.47,6.99-2.21,10.82-2.21s7.34,.74,10.7,2.21c3.36,1.47,6.28,3.45,8.78,5.95s4.48,5.44,5.95,8.82c1.47,3.39,2.21,6.99,2.21,10.82s-.74,7.34-2.21,10.7c-1.47,3.36-3.45,6.28-5.95,8.78s-5.42,4.48-8.78,5.95c-3.36,1.47-6.92,2.21-10.7,2.21s-7.44-.73-10.82-2.21c-3.39-1.47-6.33-3.45-8.82-5.95s-4.48-5.42-5.95-8.78c-1.47-3.36-2.21-6.92-2.21-10.7Z"/><path d="M1000.99,181.8c3.55,0,7.1,.21,10.65,.62,3.55,.42,6.92,.96,10.11,1.62,3.19,.67,6.1,1.4,8.74,2.21,2.64,.8,4.79,1.6,6.45,2.37,.28,.11,.57,.28,.87,.5,.3,.22,.46,.64,.46,1.25,0,.17-.03,.39-.08,.67-.06,.28-.11,.56-.17,.83l-1,4.91c-.11,.67-.26,1.07-.46,1.21-.19,.14-.37,.21-.54,.21-.28,0-.8-.08-1.58-.25-.78-.17-1.61-.25-2.5-.25-3.16,0-5.66,.85-7.49,2.54-1.83,1.69-3,4.65-3.5,8.86l-4.66,38.87c-.44,3.44-1.6,6.66-3.45,9.66-1.86,3-4.54,5.63-8.03,7.91-3.5,2.28-7.81,4.07-12.94,5.37-5.13,1.3-11.14,1.96-18.02,1.96-4.33,0-8.55-.26-12.65-.79-4.11-.53-7.89-1.17-11.36-1.91-3.47-.75-6.49-1.5-9.07-2.25s-4.51-1.35-5.78-1.79c-.44-.11-.79-.26-1.04-.46-.25-.19-.37-.51-.37-.96,0-.22,.03-.47,.08-.75,.06-.28,.14-.61,.25-1l1-4.66c.11-.44,.3-.8,.58-1.08s.78-.42,1.5-.42c1.83,0,3.68-.1,5.54-.29,1.86-.19,3.58-.71,5.16-1.54s2.97-2.11,4.16-3.83c1.19-1.72,2.01-4.13,2.46-7.24l5.83-40.12c.61-4.22,2.16-7.74,4.66-10.57s5.59-5.09,9.28-6.78c3.69-1.69,7.87-2.88,12.53-3.58,4.66-.69,9.46-1.04,14.4-1.04Z"/><path d="M1116.1,179.06c.61-6.05,2.25-11.1,4.91-15.15,2.66-4.05,5.96-7.28,9.91-9.7,3.94-2.41,8.32-4.12,13.15-5.12s9.71-1.5,14.65-1.5c4.05,0,8.02,.17,11.9,.5,3.88,.33,7.46,.72,10.74,1.17,3.27,.44,6.1,.89,8.49,1.33,2.39,.44,4.13,.78,5.24,1,.67,.17,1,.47,1,.92,0,.11-.06,.44-.17,1l-1.25,5.99c-.11,.39-.26,.62-.46,.71-.19,.08-.37,.12-.54,.12-2.44,0-4.55,.42-6.33,1.25-1.78,.83-3.25,2-4.41,3.5s-2.05,3.27-2.66,5.33c-.61,2.05-1.03,4.27-1.25,6.66l-4.99,60.51c-.44,4.88-1.69,9.49-3.75,13.82-2.05,4.33-4.91,8.1-8.57,11.32-3.66,3.22-8.16,5.77-13.48,7.66-5.33,1.89-11.43,2.83-18.31,2.83-4.61,0-9.05-.22-13.32-.67-4.27-.44-8.16-.97-11.65-1.58-3.5-.61-6.51-1.21-9.03-1.79-2.53-.58-4.34-1.01-5.45-1.29-.67-.17-1-.47-1-.92,0-.05,.05-.36,.17-.92l1.42-6.33c.11-.39,.26-.62,.46-.71,.19-.08,.37-.12,.54-.12,2.44,0,4.7-.36,6.78-1.08,2.08-.72,3.9-1.91,5.45-3.58,1.55-1.66,2.84-3.83,3.87-6.49,1.03-2.66,1.73-5.94,2.12-9.82l5.83-58.85Z"/><path d="M1233.22,269.95c-3,0-6.01-.19-9.03-.58-3.02-.39-5.91-1.01-8.66-1.87-2.75-.86-5.31-1.98-7.7-3.37-2.39-1.39-4.45-3.11-6.2-5.16-1.75-2.05-3.12-4.47-4.12-7.24-1-2.77-1.5-5.96-1.5-9.57,0-4.83,.92-8.96,2.75-12.4,1.83-3.44,4.29-6.3,7.37-8.57,3.08-2.27,6.62-4.02,10.61-5.24,4-1.22,8.13-2,12.4-2.33v-5.74c0-2.16-.28-3.88-.83-5.16-.56-1.28-1.26-2.23-2.12-2.87-.86-.64-1.8-1.05-2.83-1.25-1.03-.19-2.01-.29-2.95-.29-1.11,0-2.29,.17-3.54,.5s-2.46,.74-3.62,1.21c-1.17,.47-2.28,.99-3.33,1.54-1.06,.56-1.94,1.05-2.66,1.5-.33,.22-.64,.42-.92,.58-.28,.17-.56,.25-.83,.25-.5,0-.97-.36-1.42-1.08l-2.83-4.49c-.28-.39-.42-.8-.42-1.25s.18-.83,.54-1.17c.36-.33,.71-.61,1.04-.83,1.83-1.28,4.16-2.58,6.99-3.91,2.83-1.33,6.01-2.52,9.53-3.58,3.52-1.05,7.34-1.91,11.45-2.58,4.11-.67,8.35-1,12.74-1s8.23,.14,12.19,.42c3.97,.28,7.71,.87,11.24,1.79,3.52,.92,6.74,2.22,9.66,3.91,2.91,1.69,5.44,3.93,7.57,6.7,2.14,2.78,3.79,6.19,4.95,10.24,1.17,4.05,1.75,8.91,1.75,14.57v37.12c0,1.83-.17,3.45-.5,4.87s-.97,2.59-1.91,3.54c-.94,.94-2.25,1.65-3.91,2.12-1.66,.47-3.83,.71-6.49,.71h-44.45Zm-4.08-45.78c-4,0-7.35,.5-10.07,1.5-2.72,1-4.91,2.33-6.58,4s-2.86,3.59-3.58,5.78c-.72,2.19-1.08,4.45-1.08,6.78s.36,4.54,1.08,6.62c.72,2.08,1.91,3.9,3.58,5.45,1.66,1.55,3.86,2.78,6.58,3.66,2.72,.89,6.08,1.33,10.07,1.33v-35.13Z"/><path d="M1363.07,227.83c0,5.61,.6,10.27,1.79,13.98,1.19,3.72,2.71,6.67,4.54,8.86,1.83,2.19,3.8,3.73,5.91,4.62,2.11,.89,4.08,1.33,5.91,1.33,1.39,0,2.66-.18,3.83-.54,1.17-.36,2.19-.78,3.08-1.25,.89-.47,1.64-.89,2.25-1.25,.61-.36,1.08-.54,1.42-.54,.5,0,.85,.08,1.04,.25,.19,.17,.43,.47,.71,.92l2.91,4.49c.28,.44,.42,.83,.42,1.17,0,.39-.11,.69-.33,.92-.22,.22-.44,.42-.67,.58-1.83,1.28-4.08,2.62-6.74,4.04s-5.76,2.71-9.28,3.87c-3.52,1.17-7.45,2.14-11.78,2.91-4.33,.78-9.05,1.17-14.15,1.17-4.16,0-8.32-.33-12.49-1s-8.14-1.75-11.94-3.25c-3.8-1.5-7.34-3.43-10.61-5.78-3.27-2.36-6.12-5.22-8.53-8.57-2.41-3.36-4.32-7.27-5.7-11.74-1.39-4.47-2.08-9.53-2.08-15.19s.69-10.72,2.08-15.19c1.39-4.47,3.29-8.38,5.7-11.74,2.41-3.36,5.26-6.21,8.53-8.57,3.27-2.36,6.81-4.29,10.61-5.78,3.8-1.5,7.78-2.58,11.94-3.25s8.32-1,12.49-1c4.55,0,8.93,.35,13.15,1.04,4.22,.69,8.12,1.61,11.69,2.75,3.58,1.14,6.8,2.39,9.66,3.75,2.86,1.36,5.17,2.71,6.95,4.04,.22,.17,.44,.36,.67,.58,.22,.22,.33,.53,.33,.92s-.14,.78-.42,1.17l-2.91,4.49c-.28,.44-.51,.75-.71,.92-.19,.17-.54,.25-1.04,.25-.33,0-.78-.17-1.33-.5-.56-.33-1.25-.71-2.08-1.12s-1.8-.8-2.91-1.17c-1.11-.36-2.36-.54-3.75-.54-1.83,0-3.8,.46-5.91,1.37-2.11,.92-4.08,2.48-5.91,4.7-1.83,2.22-3.34,5.19-4.54,8.91-1.19,3.72-1.79,8.38-1.79,13.98Z"/><path d="M1406.18,196.29c0-1.89,.17-3.56,.5-5.04,.33-1.47,.97-2.68,1.91-3.62,.94-.94,2.25-1.66,3.91-2.16s3.83-.75,6.49-.75h36.46c2.55,0,4.6,.25,6.16,.75,1.55,.5,2.77,1.25,3.66,2.25,.89,1,1.48,2.25,1.79,3.75,.3,1.5,.46,3.25,.46,5.24v6.16l18.48-17.98c1.22-1.17,2.36-1.75,3.41-1.75,.61,0,1.15,.12,1.62,.37,.47,.25,.87,.54,1.21,.87l3.75,3.91c.83,.83,1.25,1.75,1.25,2.75,0,.61-.18,1.24-.54,1.87-.36,.64-.93,1.26-1.71,1.87l-27.47,21.31v42.12c0,1.94-.14,3.65-.42,5.12-.28,1.47-.89,2.69-1.83,3.66-.94,.97-2.3,1.71-4.08,2.21-1.78,.5-4.19,.75-7.24,.75h-34.96c-2.66,0-4.83-.25-6.49-.75s-2.97-1.22-3.91-2.16c-.94-.94-1.58-2.14-1.91-3.58-.33-1.44-.5-3.13-.5-5.08v-62.09Z"/><path d="M1574.07,256.14c1.5,0,2.86-.21,4.08-.62,1.22-.42,2.32-.87,3.29-1.37,.97-.5,1.77-.96,2.41-1.37,.64-.42,1.12-.62,1.46-.62,.5,0,.85,.08,1.04,.25,.19,.17,.43,.47,.71,.92l2.91,4.49c.28,.44,.42,.83,.42,1.17,0,.39-.11,.69-.33,.92-.22,.22-.44,.42-.67,.58-1.83,1.28-4.08,2.65-6.74,4.12-2.66,1.47-5.76,2.82-9.28,4.04-3.52,1.22-7.51,2.23-11.94,3.04-4.44,.8-9.32,1.21-14.65,1.21-4.16,0-8.32-.33-12.49-1s-8.14-1.72-11.94-3.16c-3.8-1.44-7.34-3.33-10.61-5.66-3.27-2.33-6.12-5.19-8.53-8.57-2.41-3.38-4.32-7.31-5.7-11.78-1.39-4.47-2.08-9.59-2.08-15.36s.69-10.72,2.08-15.19c1.39-4.47,3.29-8.39,5.7-11.78,2.41-3.38,5.26-6.26,8.53-8.62,3.27-2.36,6.81-4.27,10.61-5.74,3.8-1.47,7.78-2.54,11.94-3.2s8.32-1,12.49-1c6.94,0,13.39,.78,19.35,2.33,5.96,1.55,11.14,4.11,15.52,7.66,4.38,3.55,7.82,8.21,10.32,13.98,2.5,5.77,3.75,12.85,3.75,21.23v4.66c0,1-.25,1.78-.75,2.33-.5,.56-1.33,.83-2.5,.83h-34.46c.44,4.11,1.23,7.53,2.37,10.28,1.14,2.75,2.44,4.94,3.91,6.58,1.47,1.64,3.06,2.79,4.79,3.45,1.72,.67,3.38,1,4.99,1Zm9.82-31.55c0-4.44-.35-8.12-1.04-11.03-.69-2.91-1.62-5.24-2.79-6.99s-2.54-2.98-4.12-3.7c-1.58-.72-3.23-1.08-4.95-1.08-1.28,0-2.66,.25-4.16,.75s-2.9,1.55-4.2,3.16c-1.31,1.61-2.41,3.91-3.33,6.91s-1.46,6.99-1.62,11.99h26.22Z"/><path d="M1702.26,258.38c0,1.94-.17,3.63-.5,5.08-.33,1.44-.97,2.64-1.91,3.58-.94,.94-2.25,1.66-3.91,2.16s-3.83,.75-6.49,.75h-36.37c-4.05-.11-8.06-.49-12.03-1.12-3.97-.64-7.74-1.64-11.32-3-3.58-1.36-6.91-3.13-9.99-5.33-3.08-2.19-5.74-4.86-7.99-7.99-2.25-3.13-4.01-6.83-5.29-11.07-1.28-4.25-1.91-9.11-1.91-14.61,0-6.83,.97-12.69,2.91-17.6,1.94-4.91,4.58-9.03,7.91-12.36s7.2-5.96,11.61-7.91c4.41-1.94,9.06-3.36,13.94-4.25v-39.45c0-1.94,.14-3.65,.42-5.12,.28-1.47,.86-2.69,1.75-3.66,.89-.97,2.11-1.69,3.66-2.16,1.55-.47,3.63-.71,6.24-.71h36.46c2.66,0,4.83,.25,6.49,.75s2.97,1.22,3.91,2.16c.94,.94,1.58,2.15,1.91,3.62,.33,1.47,.5,3.15,.5,5.04v113.2Zm-85.9-31.46c0,4.11,.47,7.95,1.42,11.53,.94,3.58,2.4,6.74,4.37,9.49,1.97,2.75,4.51,5.01,7.62,6.78,3.11,1.78,6.83,2.91,11.15,3.41v-62.76c-4.33,.5-8.05,1.65-11.15,3.45-3.11,1.8-5.65,4.09-7.62,6.87-1.97,2.78-3.43,5.97-4.37,9.57-.94,3.61-1.42,7.49-1.42,11.65Z"/></g><g><path d="M114.63,91.68c-12.15,12.85-20.88,24.46-26.19,34.83-5.31,10.37-9.38,21.74-12.2,34.1-2.83,12.36-4.24,24.62-4.24,36.77s1.41,24.41,4.24,36.77c2.83,12.36,6.9,23.73,12.2,34.1,5.31,10.37,14.04,21.95,26.19,34.73h-16.24c-9.01-7.82-17.41-17.81-25.19-29.96-7.79-12.15-13.39-24.65-16.81-37.5-3.42-12.85-5.13-25.56-5.13-38.13s1.71-25.28,5.13-38.13c3.42-12.85,9.03-25.35,16.81-37.5,7.79-12.15,16.18-22.17,25.19-30.06h16.24Z"/><path d="M1787.88,302.97c12.15-12.78,20.88-24.36,26.19-34.73,5.31-10.37,9.38-21.74,12.2-34.1,2.83-12.36,4.24-24.62,4.24-36.77s-1.42-24.41-4.24-36.77c-2.83-12.36-6.9-23.74-12.2-34.15-5.31-10.4-14.04-22-26.19-34.78h16.24c9.01,7.89,17.4,17.91,25.19,30.06,7.79,12.15,13.39,24.65,16.81,37.5,3.42,12.85,5.13,25.56,5.13,38.13s-1.71,25.28-5.13,38.13c-3.42,12.85-9.03,25.35-16.81,37.5-7.79,12.15-16.18,22.14-25.19,29.96h-16.24Z"/></g></svg>